<?xml version="1.0" standalone="no"?>
<!DOCTYPE svg PUBLIC "-//W3C//DTD SVG 20010904//EN"
 "http://www.w3.org/TR/2001/REC-SVG-20010904/DTD/svg10.dtd">
<svg version="1.0" xmlns="http://www.w3.org/2000/svg"
 width="1012.000000pt" height="286.000000pt" viewBox="0 0 1012.000000 286.000000"
 preserveAspectRatio="xMidYMid meet">

<g transform="translate(0.000000,286.000000) scale(0.100000,-0.100000)"
fill="#000000" stroke="none">
<path d="M1600 2035 c0 -300 2 -545 5 -545 2 0 64 34 137 77 503 289 634 366
641 373 10 9 -17 73 -38 90 -10 9 -82 -28 -308 -159 -163 -94 -303 -174 -311
-177 -14 -6 -16 36 -16 425 l0 430 -52 16 c-28 8 -53 15 -55 15 -2 0 -3 -245
-3 -545z"/>
<path d="M1884 2357 c-125 -72 -124 -70 -124 -133 0 -29 4 -55 9 -58 10 -7
311 164 311 176 0 11 -80 68 -94 68 -6 0 -52 -24 -102 -53z"/>
<path d="M6000 2377 c-89 -25 -182 -105 -221 -190 -49 -109 0 -217 100 -217
29 0 30 1 20 27 -15 40 -12 151 5 200 30 85 73 123 138 123 68 -1 89 -40 95
-179 7 -140 -19 -292 -88 -516 -100 -328 -116 -416 -87 -480 17 -38 76 -65
143 -65 78 0 143 36 236 129 l77 76 -5 -55 c-4 -46 -1 -61 19 -90 31 -46 61
-60 129 -60 89 0 164 43 284 164 240 242 448 660 448 902 0 179 -97 255 -198
157 l-38 -36 29 -21 c78 -56 92 -100 75 -231 -17 -142 -70 -287 -167 -457
-133 -236 -296 -408 -387 -408 -79 0 -63 116 58 419 41 104 75 194 75 200 0
26 -32 71 -60 86 -50 26 -68 20 -80 -27 -50 -198 -216 -496 -340 -612 -48 -45
-115 -74 -144 -63 -12 5 -16 20 -15 64 0 64 13 117 83 338 69 218 94 322 107
443 15 136 -3 237 -54 305 -54 70 -146 99 -237 74z"/>
<path d="M8880 2344 c-130 -122 -351 -548 -419 -809 -24 -90 -54 -138 -126
-202 -61 -55 -125 -86 -159 -77 -33 8 -40 33 -22 80 77 211 81 239 43 295 -12
19 -51 54 -85 79 l-61 45 6 57 c5 49 3 59 -12 64 -23 9 -44 -5 -73 -47 -20
-28 -23 -42 -18 -81 14 -101 -95 -307 -186 -354 -28 -14 -113 -22 -124 -11 -3
3 6 25 20 50 59 101 84 229 57 295 -15 35 -63 62 -110 62 -72 0 -139 -54 -162
-129 -11 -38 -12 -38 -56 -33 -42 4 -46 2 -88 -42 -56 -58 -83 -110 -101 -195
-15 -74 -11 -121 17 -167 55 -91 203 -68 321 51 53 53 54 54 93 45 136 -32
249 59 331 266 21 52 41 94 46 94 4 0 22 -13 40 -29 46 -41 45 -95 -5 -219
-61 -153 -46 -225 54 -252 82 -22 181 21 272 120 l57 61 0 -41 c0 -90 43 -141
123 -148 67 -5 130 23 198 89 42 41 49 45 49 26 0 -33 35 -84 69 -102 42 -21
93 -19 149 7 46 22 152 118 206 188 l27 35 -7 -52 c-9 -69 1 -116 32 -153 23
-26 32 -30 79 -30 31 0 73 8 100 20 102 44 261 249 222 287 -12 13 -18 8 -44
-39 -64 -111 -197 -212 -238 -178 -20 17 -20 108 1 206 26 127 79 258 240 595
56 119 106 232 109 252 6 30 3 38 -18 52 -23 15 -28 15 -55 1 -57 -30 -160
-229 -297 -576 -74 -188 -145 -324 -212 -405 -92 -112 -166 -150 -208 -108
-47 46 23 245 126 357 67 73 124 100 194 93 62 -6 77 9 49 51 -15 23 -20 24
-83 20 -152 -11 -303 -140 -402 -342 -53 -108 -111 -180 -165 -206 -50 -25
-77 -20 -101 16 -13 20 -15 44 -11 124 l5 98 70 69 c147 145 276 351 343 552
41 122 39 197 -8 254 -23 26 -38 21 -92 -29z m46 -175 c-18 -70 -81 -208 -145
-317 -45 -78 -161 -236 -167 -229 -16 16 149 377 226 497 43 67 90 123 98 116
2 -2 -4 -33 -12 -67z m-1276 -468 c24 -46 -1 -177 -48 -249 l-16 -24 -17 23
c-43 57 -51 163 -18 219 12 19 27 38 33 42 21 14 55 8 66 -11z m-185 -237 c8
-22 27 -51 40 -64 14 -13 25 -29 25 -36 0 -24 -119 -114 -150 -114 -37 0 -60
32 -60 85 1 47 44 160 85 225 l29 45 8 -50 c4 -27 14 -68 23 -91z"/>
<path d="M3331 2355 c-246 -91 -485 -408 -542 -718 -17 -95 -15 -233 5 -302
34 -119 127 -218 229 -246 23 -6 78 -9 123 -7 67 4 94 10 155 40 145 69 238
156 329 308 94 157 134 310 134 520 1 244 -50 357 -160 354 -55 -1 -116 -38
-194 -115 -123 -123 -146 -237 -55 -275 19 -8 36 -14 39 -14 2 0 11 24 21 53
38 116 124 258 170 279 59 27 86 -26 93 -183 8 -193 -28 -368 -113 -548 -110
-231 -241 -345 -395 -345 -104 0 -158 41 -201 151 -31 82 -31 242 1 367 88
348 339 646 560 666 l65 5 -32 18 c-47 25 -152 22 -232 -8z"/>
<path d="M1968 2118 l-208 -121 0 -64 c0 -34 3 -63 8 -63 4 0 118 64 254 143
l246 143 -35 42 c-19 23 -40 42 -46 41 -7 0 -105 -55 -219 -121z"/>
<path d="M388 2066 c-20 -33 -24 -47 -15 -54 7 -5 143 -85 302 -177 160 -92
294 -169 298 -172 12 -7 8 -10 -378 -232 -192 -112 -352 -204 -354 -206 -9
-10 27 -110 39 -107 7 1 161 89 344 194 182 105 387 224 455 263 68 39 123 75
123 81 0 9 -742 442 -772 451 -10 2 -25 -12 -42 -41z"/>
<path d="M284 1855 c-9 -24 -14 -50 -12 -60 3 -18 392 -245 420 -245 10 0 39
13 64 29 l47 29 -94 55 c-52 30 -165 95 -251 145 l-157 90 -17 -43z"/>
<path d="M5421 1773 c-37 -19 -78 -73 -87 -119 -6 -29 -8 -30 -54 -30 -38 1
-54 -4 -76 -24 -36 -33 -88 -116 -104 -165 -17 -52 -128 -163 -194 -195 -59
-28 -135 -37 -175 -20 -33 13 -61 69 -61 121 0 79 68 218 145 295 106 106 183
68 113 -56 -19 -32 -19 -35 -2 -47 10 -7 23 -13 30 -13 26 0 57 38 69 85 15
61 5 101 -32 134 -24 21 -34 23 -98 19 -54 -4 -84 -12 -124 -34 -91 -49 -179
-167 -210 -279 -21 -78 -133 -195 -186 -195 -53 0 -56 35 -15 153 44 127 38
211 -20 262 -17 16 -36 20 -89 20 -60 0 -71 -4 -124 -39 -31 -21 -84 -68 -116
-103 l-59 -66 14 66 c19 93 8 117 -54 117 -48 0 -77 -34 -85 -99 -3 -29 -25
-105 -47 -169 -57 -160 -56 -158 -28 -175 12 -9 35 -18 49 -22 23 -6 31 2 90
91 140 212 214 284 295 284 69 0 78 -33 44 -161 -27 -102 -26 -151 4 -185 20
-24 32 -28 89 -32 58 -4 72 -1 111 22 25 15 60 45 78 67 l32 40 13 -53 c16
-61 60 -112 111 -129 99 -33 247 16 353 117 l56 55 7 -42 c4 -26 17 -52 36
-70 25 -25 36 -29 85 -29 84 0 158 39 241 126 29 31 33 32 73 23 80 -18 161
20 222 104 21 29 26 43 18 53 -8 10 -21 2 -57 -36 -30 -31 -61 -52 -87 -59
-44 -12 -79 -14 -88 -5 -3 3 10 37 29 75 63 126 79 207 54 273 -22 58 -119 83
-189 49z m127 -75 c10 -21 11 -41 3 -84 -10 -54 -76 -194 -91 -194 -15 0 -41
99 -41 154 0 115 91 202 129 124z m-218 -149 c0 -41 28 -110 59 -150 27 -33
28 -36 12 -56 -32 -42 -103 -93 -129 -93 -63 0 -79 65 -42 181 27 86 79 177
91 158 5 -8 9 -26 9 -40z"/>
<path d="M226 1634 c-3 -9 -6 -37 -6 -63 l0 -47 88 -51 c135 -79 126 -76 169
-54 87 45 89 40 -53 123 -185 108 -191 111 -198 92z"/>
<path d="M1260 779 l0 -459 39 0 c22 0 46 -3 55 -6 14 -6 16 30 16 360 0 201
3 366 6 366 3 0 18 -8 32 -18 36 -25 683 -397 703 -404 11 -4 30 7 55 33 32
33 36 41 24 49 -18 12 -346 202 -682 396 l-248 143 0 -460z"/>
<path d="M1510 616 c0 -319 -7 -293 73 -280 l37 7 0 248 0 249 -41 25 c-75 48
-69 68 -69 -249z"/>
<path d="M3506 819 c-39 -31 -56 -71 -56 -134 0 -94 46 -145 132 -145 32 0 50
6 62 19 24 27 11 46 -17 26 -24 -17 -70 -20 -96 -5 -54 29 -60 172 -9 212 26
20 88 24 106 6 9 -9 15 -9 23 -1 17 17 -29 43 -77 43 -27 0 -51 -7 -68 -21z"/>
<path d="M3785 828 c-10 -28 -95 -282 -95 -286 0 -2 7 -2 17 0 9 2 21 20 27
43 l12 40 58 0 59 0 15 -42 c9 -30 19 -43 32 -43 21 0 23 -10 -38 173 -36 104
-47 127 -63 127 -11 0 -22 -6 -24 -12z m59 -140 c6 -27 5 -28 -32 -28 -21 0
-41 2 -44 5 -3 3 4 37 16 76 l20 70 17 -48 c9 -26 19 -60 23 -75z"/>
<path d="M3970 691 c0 -144 1 -151 20 -151 19 0 20 7 20 123 l0 122 51 -90
c28 -49 59 -103 68 -120 10 -16 27 -31 39 -33 22 -3 22 -2 22 147 0 146 -1
151 -21 151 -20 0 -21 -4 -17 -120 1 -65 0 -116 -5 -111 -4 4 -35 56 -70 117
-46 82 -68 110 -84 112 -23 3 -23 3 -23 -147z"/>
<path d="M4318 823 c-56 -35 -79 -154 -43 -222 29 -58 127 -81 175 -43 30 25
18 49 -13 27 -30 -21 -90 -19 -110 3 -27 30 -41 101 -28 148 17 65 64 86 140
63 25 -7 22 17 -4 29 -36 17 -85 14 -117 -5z"/>
<path d="M4530 690 l0 -150 90 0 c73 0 90 3 90 15 0 12 -14 15 -70 15 l-70 0
0 55 0 55 55 0 c42 0 55 3 55 15 0 12 -13 15 -55 15 l-55 0 0 50 0 50 65 0
c51 0 65 3 65 15 0 12 -16 15 -85 15 l-85 0 0 -150z"/>
<path d="M4780 690 c0 -127 2 -150 15 -150 12 0 15 14 15 65 0 64 0 65 28 65
24 0 33 -9 65 -65 27 -46 43 -65 58 -65 19 0 19 2 -7 48 -15 26 -32 53 -37 59
-6 9 0 22 22 42 33 30 41 74 21 111 -13 24 -62 40 -126 40 l-54 0 0 -150z
m132 108 c51 -41 18 -98 -57 -98 l-45 0 0 55 0 55 43 0 c24 0 50 -6 59 -12z"/>
<path d="M5130 690 l0 -150 55 0 c81 0 122 20 145 72 23 51 25 106 5 154 -18
44 -79 73 -152 74 l-53 0 0 -150z m131 110 c51 -28 67 -143 26 -193 -17 -22
-34 -30 -70 -34 l-47 -6 0 122 0 121 36 0 c19 0 44 -5 55 -10z"/>
<path d="M5420 691 c0 -125 2 -151 15 -151 10 0 15 16 17 63 3 59 4 62 29 65
23 3 31 -5 63 -62 27 -48 43 -66 57 -66 21 0 21 0 -2 38 -51 86 -51 82 -18
113 23 21 29 36 29 68 0 55 -30 74 -122 79 l-68 4 0 -151z m144 97 c35 -49 3
-88 -71 -88 l-43 0 0 55 0 55 49 0 c40 0 53 -4 65 -22z"/>
<path d="M5680 735 c0 -158 22 -195 113 -195 38 0 49 5 70 29 27 32 40 111 36
214 -2 48 -5 57 -21 57 -16 0 -18 -10 -18 -111 0 -61 -4 -119 -10 -129 -13
-24 -59 -39 -88 -29 -33 12 -42 48 -42 165 0 97 -1 104 -20 104 -19 0 -20 -7
-20 -105z"/>
<path d="M6032 826 c-87 -48 -92 -216 -8 -267 38 -23 113 -25 144 -3 19 13 22
24 22 75 l0 59 -50 0 c-38 0 -50 -4 -50 -15 0 -10 11 -15 35 -15 34 0 35 -1
35 -40 0 -36 -3 -40 -32 -48 -47 -12 -80 -1 -105 38 -41 59 -25 161 29 187 42
20 55 22 83 7 37 -19 56 -3 24 20 -28 19 -95 20 -127 2z"/>
<path d="M6360 690 l0 -150 50 0 c78 0 117 21 142 76 16 37 19 59 14 98 -10
88 -56 124 -158 125 l-48 1 0 -150z m121 110 c29 -16 49 -64 49 -119 0 -68
-28 -101 -93 -108 l-47 -6 0 122 0 121 36 0 c19 0 44 -5 55 -10z"/>
<path d="M6640 690 c0 -127 2 -150 15 -150 13 0 15 23 15 150 0 127 -2 150
-15 150 -13 0 -15 -23 -15 -150z"/>
<path d="M6780 820 c-26 -26 -34 -63 -21 -89 6 -11 38 -33 72 -48 62 -29 83
-59 62 -92 -14 -23 -90 -27 -113 -6 -18 16 -40 13 -40 -5 0 -18 59 -40 105
-40 37 0 51 5 70 26 25 27 31 57 19 89 -4 9 -37 32 -75 51 -56 28 -69 39 -69
58 0 13 7 29 15 36 19 16 71 16 90 0 8 -7 19 -8 26 -4 8 5 4 13 -12 25 -33 26
-103 25 -129 -1z"/>
<path d="M6970 826 c0 -10 14 -16 43 -18 l42 -3 3 -132 c2 -109 5 -133 17
-133 13 0 15 23 15 135 l0 135 45 0 c33 0 45 4 45 15 0 12 -18 15 -105 15 -85
0 -105 -3 -105 -14z"/>
<path d="M7240 690 c0 -143 1 -150 20 -150 18 0 20 7 20 65 0 62 1 65 25 65
20 0 32 -13 62 -65 24 -42 44 -65 55 -65 24 0 24 0 -16 67 l-35 58 28 22 c32
25 46 75 31 104 -17 31 -65 49 -130 49 l-60 0 0 -150z m144 104 c9 -8 16 -26
16 -39 0 -36 -26 -55 -76 -55 l-44 0 0 55 0 55 44 0 c27 0 51 -6 60 -16z"/>
<path d="M7510 690 c0 -127 2 -150 15 -150 13 0 15 23 15 150 0 127 -2 150
-15 150 -13 0 -15 -23 -15 -150z"/>
<path d="M7630 691 l0 -151 69 0 c60 0 74 3 100 26 23 19 31 34 31 59 0 35
-21 65 -46 65 -19 0 -18 9 5 28 32 29 34 66 5 93 -20 19 -38 24 -94 27 l-70 4
0 -151z m131 109 c20 -11 25 -45 10 -69 -5 -7 -32 -16 -60 -19 l-51 -5 0 52 0
51 41 0 c22 0 49 -5 60 -10z m21 -137 c25 -22 23 -59 -4 -77 -13 -9 -43 -16
-70 -16 l-48 0 0 55 0 55 52 0 c34 0 58 -6 70 -17z"/>
<path d="M7900 719 c0 -120 0 -121 29 -150 24 -23 38 -29 73 -29 86 0 108 41
108 203 0 91 -1 97 -20 97 -20 0 -21 -5 -19 -109 1 -66 -3 -117 -11 -130 -25
-49 -96 -45 -119 6 -6 13 -11 71 -11 128 0 87 -3 105 -15 105 -13 0 -15 -20
-15 -121z"/>
<path d="M8160 826 c0 -11 14 -16 48 -18 l47 -3 3 -132 c2 -109 5 -133 17
-133 13 0 15 23 15 135 l0 135 45 0 c33 0 45 4 45 15 0 12 -19 15 -110 15 -89
0 -110 -3 -110 -14z"/>
<path d="M8440 690 c0 -127 2 -150 15 -150 13 0 15 23 15 150 0 127 -2 150
-15 150 -13 0 -15 -23 -15 -150z"/>
<path d="M8590 812 c-31 -31 -53 -96 -46 -133 3 -13 5 -35 5 -47 1 -13 16 -39
35 -58 29 -29 41 -34 80 -34 84 0 129 52 130 150 0 97 -47 150 -134 150 -32 0
-48 -6 -70 -28z m140 -29 c42 -54 34 -167 -15 -199 -34 -22 -84 -14 -108 18
-23 31 -33 112 -18 150 13 35 64 67 97 60 13 -2 33 -15 44 -29z"/>
<path d="M8860 691 c0 -146 1 -151 21 -151 20 0 21 4 17 119 -2 79 0 116 7
111 6 -5 37 -58 70 -119 48 -89 64 -111 82 -111 22 0 22 2 22 150 0 144 -1
150 -20 150 -20 0 -20 -5 -17 -124 2 -69 1 -123 0 -121 -2 2 -34 57 -70 122
-51 89 -73 119 -90 121 -22 3 -22 3 -22 -147z"/>
<path d="M1750 575 c0 -102 4 -185 9 -185 4 0 31 10 60 21 l51 22 0 133 0 133
-54 30 c-29 17 -56 31 -60 31 -3 0 -6 -83 -6 -185z"/>
</g>
</svg>
